Normalized EMG Linear Envelopes
nRows=119
nColumns=4

endheader
time	 med_gas_r	  soleus_r	 tib_ant_r	
2.87482	  0.155791	  0.111162	  0.039650	
2.93731	  0.137783	  0.112129	  0.049631	
2.99981	  0.124861	  0.112473	  0.056848	
3.0623	  0.118276	  0.112744	  0.059471	
3.1248	  0.116527	  0.113543	  0.057805	
3.1873	  0.117707	  0.114891	  0.054253	
3.24979	  0.120525	  0.116819	  0.051479	
3.31229	  0.123981	  0.119015	  0.050702	
3.37478	  0.126456	  0.120649	  0.051866	
3.43728	  0.126783	  0.121270	  0.054771	
3.49978	  0.125662	  0.120700	  0.059013	
3.56227	  0.125362	  0.118690	  0.063016	
3.62477	  0.127498	  0.115494	  0.064194	
3.68726	  0.130511	  0.111933	  0.061127	
3.74976	  0.131432	  0.109346	  0.055400	
3.81226	  0.129740	  0.109270	  0.050003	
3.87475	  0.127303	  0.111261	  0.046522	
3.93725	  0.125961	  0.112648	  0.044981	
3.99974	  0.126457	  0.112382	  0.045424	
4.06224	  0.128752	  0.112703	  0.049572	
4.12474	  0.132212	  0.116543	  0.062451	
4.18723	  0.136270	  0.125131	  0.091107	
4.24973	  0.141852	  0.136560	  0.139304	
4.31222	  0.151569	  0.146053	  0.203659	
4.37472	  0.168646	  0.149632	  0.275277	
4.43722	  0.195180	  0.147104	  0.345483	
4.49971	  0.230865	  0.141367	  0.411677	
4.56221	  0.272492	  0.137131	  0.475400	
4.6247	  0.311501	  0.139586	  0.532391	
4.6872	  0.336051	  0.151283	  0.572201	
4.7497	  0.342854	  0.169213	  0.592784	
4.81219	  0.341593	  0.185573	  0.604730	
4.87469	  0.342606	  0.193651	  0.616015	
4.93718	  0.347365	  0.193498	  0.625715	
4.99968	  0.353340	  0.190108	  0.634257	
5.06218	  0.361354	  0.187401	  0.645695	
5.12467	  0.373816	  0.185721	  0.661967	
5.18717	  0.388436	  0.182744	  0.682077	
5.24966	  0.399791	  0.176062	  0.698607	
5.31216	  0.406652	  0.167322	  0.695883	
5.37466	  0.413139	  0.162414	  0.662796	
5.43715	  0.424106	  0.164750	  0.606931	
5.49965	  0.440355	  0.171011	  0.554664	
5.56214	  0.456840	  0.175332	  0.537053	
5.62464	  0.467999	  0.175048	  0.567975	
5.68714	  0.474416	  0.172990	  0.632211	
5.74963	  0.482260	  0.175566	  0.694788	
5.81213	  0.497415	  0.186541	  0.725349	
5.87462	  0.518374	  0.203862	  0.718819	
5.93712	  0.536120	  0.223336	  0.690110	
5.99962	  0.544460	  0.240666	  0.657353	
6.06211	  0.546400	  0.250683	  0.640130	
6.12461	  0.547904	  0.251730	  0.652793	
6.1871	  0.549755	  0.250307	  0.687900	
6.2496	  0.548652	  0.254561	  0.722939	
6.3121	  0.543937	  0.263771	  0.739775	
6.37459	  0.541389	  0.270858	  0.727802	
6.43709	  0.550042	  0.273056	  0.684085	
6.49958	  0.570174	  0.272744	  0.621177	
6.56208	  0.586746	  0.271066	  0.565743	
6.62458	  0.583365	  0.267209	  0.540058	
6.68707	  0.559289	  0.262249	  0.542507	
6.74957	  0.528995	  0.260043	  0.551414	
6.81206	  0.509307	  0.261917	  0.550604	
6.87456	  0.508149	  0.263224	  0.540986	
6.93706	  0.522122	  0.260783	  0.526942	
6.99955	  0.540213	  0.259546	  0.510058	
7.06205	  0.553128	  0.266458	  0.499076	
7.12454	  0.561887	  0.281932	  0.510088	
7.18704	  0.568958	  0.300816	  0.547516	
7.24954	  0.565190	  0.318406	  0.587540	
7.31203	  0.539518	  0.332028	  0.594771	
7.37453	  0.495335	  0.339800	  0.561884	
7.43702	  0.448164	  0.341647	  0.518697	
7.49952	  0.413715	  0.338851	  0.497832	
7.56202	  0.400658	  0.333717	  0.501783	
7.62451	  0.408962	  0.332828	  0.507098	
7.68701	  0.431102	  0.342457	  0.497886	
7.7495	  0.453994	  0.358048	  0.484633	
7.812	  0.464972	  0.369499	  0.484158	
7.8745	  0.461400	  0.373860	  0.493915	
7.93699	  0.450426	  0.372151	  0.495895	
7.99949	  0.439491	  0.363750	  0.480706	
8.06198	  0.433912	  0.350262	  0.458773	
8.12448	  0.438246	  0.334242	  0.447685	
8.18698	  0.452191	  0.316900	  0.456934	
8.24947	  0.468096	  0.303817	  0.481097	
8.31197	  0.474989	  0.302692	  0.500389	
8.37446	  0.466513	  0.311316	  0.497724	
8.43696	  0.447825	  0.318026	  0.477677	
8.49946	  0.433441	  0.315976	  0.458467	
8.56195	  0.435341	  0.310891	  0.452105	
8.62445	  0.452377	  0.314473	  0.463541	
8.68694	  0.472563	  0.331661	  0.497369	
8.74944	  0.486591	  0.356510	  0.548875	
8.81194	  0.495925	  0.381974	  0.594265	
8.87443	  0.505348	  0.405467	  0.604191	
8.93693	  0.514152	  0.422482	  0.569806	
8.99942	  0.519478	  0.427053	  0.512634	
9.06192	  0.519058	  0.419429	  0.467427	
9.12442	  0.507145	  0.404672	  0.453944	
9.18691	  0.479303	  0.387376	  0.462574	
9.24941	  0.440809	  0.370889	  0.466893	
9.3119	  0.402278	  0.356483	  0.450870	
9.3744	  0.371185	  0.341977	  0.419661	
9.4369	  0.348133	  0.322539	  0.386649	
9.49939	  0.327619	  0.294588	  0.359543	
9.56189	  0.305711	  0.260559	  0.337293	
9.62438	  0.284164	  0.227124	  0.314675	
9.68688	  0.263854	  0.197726	  0.289493	
9.74938	  0.241755	  0.170628	  0.265272	
9.81187	  0.215966	  0.144701	  0.247355	
9.87437	  0.189128	  0.123370	  0.237045	
9.93686	  0.168625	  0.111602	  0.230767	
9.99936	  0.161681	  0.110749	  0.224901	
10.0619	  0.164216	  0.116469	  0.218616	
10.1244	  0.158921	  0.121045	  0.212167	
10.1868	  0.131620	  0.118887	  0.205215	
10.2493	  0.085931	  0.110614	  0.197433	
